<mxfile host="65bd71144e" scale="5" border="0">
    <diagram id="ePSQBs5Ar4BAY2rufFVX" name="Page-1">
        <mxGraphModel dx="1857" dy="4111" grid="1" gridSize="10" guides="1" tooltips="1" connect="1" arrows="1" fold="1" page="1" pageScale="1" pageWidth="827" pageHeight="1169" math="0" shadow="0">
            <root>
                <mxCell id="0"/>
                <mxCell id="1" parent="0"/>
                <mxCell id="70" value="" style="rounded=0;whiteSpace=wrap;html=1;dashed=1;strokeColor=#FFFFFF;fillColor=#FFFFFF;" parent="1" vertex="1">
                    <mxGeometry x="-72.62" y="-584" width="2071.75" height="1470" as="geometry"/>
                </mxCell>
                <mxCell id="105" value="" style="rounded=0;whiteSpace=wrap;html=1;strokeColor=#0077FF;fillColor=none;" parent="1" vertex="1">
                    <mxGeometry x="156.5" y="306" width="1613.5" height="400" as="geometry"/>
                </mxCell>
                <mxCell id="215" value="" style="rounded=0;whiteSpace=wrap;html=1;fontSize=10;dashed=1;strokeColor=#0077FF;fillColor=none;shadow=0;" parent="1" vertex="1">
                    <mxGeometry x="491.26" y="384.82" width="1100" height="220" as="geometry"/>
                </mxCell>
                <mxCell id="48" value="" style="rounded=0;whiteSpace=wrap;html=1;fillColor=none;strokeColor=#0077ff;" parent="1" vertex="1">
                    <mxGeometry x="156.5" y="-404" width="1613.5" height="575" as="geometry"/>
                </mxCell>
                <mxCell id="207" value="" style="rounded=0;whiteSpace=wrap;html=1;fontSize=10;dashed=1;strokeColor=#0077FF;fillColor=none;shadow=0;" parent="1" vertex="1">
                    <mxGeometry x="658.02" y="-329" width="477.5" height="250.49" as="geometry"/>
                </mxCell>
                <mxCell id="173" value="&lt;b style=&quot;border-color: var(--border-color);&quot;&gt;&lt;font style=&quot;font-size: 10px;&quot;&gt;cas&lt;br&gt;(redis)&lt;/font&gt;&lt;br&gt;&lt;/b&gt;" style="rounded=0;whiteSpace=wrap;html=1;strokeColor=#0077FF;fillColor=none;shadow=1;fontColor=#0077FF;" parent="1" vertex="1">
                    <mxGeometry x="335.26" y="569.82" width="96.82" height="57.35" as="geometry"/>
                </mxCell>
                <mxCell id="174" value="&lt;b style=&quot;border-color: var(--border-color);&quot;&gt;&lt;font style=&quot;font-size: 10px;&quot;&gt;agent&lt;/font&gt;&lt;/b&gt;" style="rounded=0;whiteSpace=wrap;html=1;strokeColor=#0077FF;fillColor=none;shadow=1;fontColor=#0077FF;" parent="1" vertex="1">
                    <mxGeometry x="335.26" y="466.14" width="96.82" height="57.35" as="geometry"/>
                </mxCell>
                <mxCell id="180" value="&lt;b style=&quot;border-color: var(--border-color);&quot;&gt;&lt;font style=&quot;font-size: 10px;&quot;&gt;proxy&lt;/font&gt;&lt;br&gt;&lt;/b&gt;" style="rounded=0;whiteSpace=wrap;html=1;strokeColor=#0077FF;fillColor=none;shadow=1;fontColor=#0077FF;" parent="1" vertex="1">
                    <mxGeometry x="442.89" y="1" width="1040.75" height="77.75" as="geometry"/>
                </mxCell>
                <mxCell id="190" value="&lt;b&gt;&lt;font style=&quot;font-size: 10px;&quot;&gt;bootstrap&lt;/font&gt;&lt;/b&gt;" style="rounded=0;whiteSpace=wrap;html=1;strokeColor=#0077FF;fillColor=none;shadow=1;fontColor=#0077FF;" parent="1" vertex="1">
                    <mxGeometry x="503.52" y="-232.43" width="96.82" height="57.35" as="geometry"/>
                </mxCell>
                <mxCell id="191" value="&lt;b&gt;&lt;span style=&quot;font-size: 10px;&quot;&gt;distninja&lt;/span&gt;&lt;br&gt;&lt;/b&gt;" style="rounded=0;whiteSpace=wrap;html=1;strokeColor=#0077FF;fillColor=none;shadow=1;fontColor=#0077FF;" parent="1" vertex="1">
                    <mxGeometry x="1193.52" y="-232.43" width="96.82" height="57.35" as="geometry"/>
                </mxCell>
                <mxCell id="200" value="&lt;b style=&quot;border-color: var(--border-color);&quot;&gt;gPRC Client&lt;/b&gt;&lt;b&gt;&lt;font&gt;&lt;br&gt;&lt;/font&gt;&lt;/b&gt;" style="text;html=1;strokeColor=none;fillColor=none;align=center;verticalAlign=middle;whiteSpace=wrap;rounded=0;fontColor=#0077FF;" parent="1" vertex="1">
                    <mxGeometry x="166.5" y="-389" width="83.5" height="35" as="geometry"/>
                </mxCell>
                <mxCell id="211" value="&lt;b style=&quot;border-color: var(--border-color);&quot;&gt;&lt;font style=&quot;font-size: 10px;&quot;&gt;worker&lt;/font&gt;&lt;br&gt;&lt;/b&gt;" style="rounded=0;whiteSpace=wrap;html=1;strokeColor=#0077FF;fillColor=none;shadow=1;fontColor=#0077FF;" parent="1" vertex="1">
                    <mxGeometry x="676.8500000000001" y="424.56" width="96.82" height="57.35" as="geometry"/>
                </mxCell>
                <mxCell id="217" value="&lt;b style=&quot;border-color: var(--border-color);&quot;&gt;&lt;font style=&quot;font-size: 10px;&quot;&gt;wrapper&lt;/font&gt;&lt;/b&gt;" style="rounded=0;whiteSpace=wrap;html=1;strokeColor=#0077FF;fillColor=none;shadow=1;fontColor=#0077FF;" parent="1" vertex="1">
                    <mxGeometry x="704.0899999999999" y="-184" width="96.82" height="57.35" as="geometry"/>
                </mxCell>
                <mxCell id="218" value="&lt;b style=&quot;border-color: var(--border-color);&quot;&gt;&lt;font style=&quot;font-size: 10px;&quot;&gt;wrapper&lt;/font&gt;&lt;/b&gt;" style="rounded=0;whiteSpace=wrap;html=1;strokeColor=#0077FF;fillColor=none;shadow=1;fontColor=#0077FF;" parent="1" vertex="1">
                    <mxGeometry x="848.14" y="-184" width="96.82" height="57.35" as="geometry"/>
                </mxCell>
                <mxCell id="219" value="&lt;b style=&quot;border-color: var(--border-color);&quot;&gt;&lt;font style=&quot;font-size: 10px;&quot;&gt;...&lt;/font&gt;&lt;/b&gt;" style="rounded=0;whiteSpace=wrap;html=1;strokeColor=#0077FF;fillColor=none;shadow=1;fontColor=#0077FF;" parent="1" vertex="1">
                    <mxGeometry x="992.6300000000001" y="-184" width="96.82" height="57.35" as="geometry"/>
                </mxCell>
                <mxCell id="222" value="&lt;b&gt;&lt;font&gt;Android Soong&lt;/font&gt;&lt;/b&gt;" style="text;html=1;strokeColor=none;fillColor=none;align=center;verticalAlign=middle;whiteSpace=wrap;rounded=0;fontColor=#0077FF;shadow=0;" parent="1" vertex="1">
                    <mxGeometry x="662.02" y="-323.02" width="110.75" height="24.02" as="geometry"/>
                </mxCell>
                <mxCell id="223" value="" style="endArrow=classic;html=1;exitX=0.5;exitY=1;exitDx=0;exitDy=0;strokeColor=#0077FF;shadow=0;entryX=0.105;entryY=0.021;entryDx=0;entryDy=0;entryPerimeter=0;" parent="1" source="190" target="180" edge="1">
                    <mxGeometry width="50" height="50" relative="1" as="geometry">
                        <mxPoint x="950.89" y="271" as="sourcePoint"/>
                        <mxPoint x="490.89" y="1" as="targetPoint"/>
                    </mxGeometry>
                </mxCell>
                <mxCell id="224" value="" style="endArrow=classic;html=1;entryX=0.436;entryY=0.009;entryDx=0;entryDy=0;strokeColor=#0077FF;shadow=0;exitX=0.5;exitY=1;exitDx=0;exitDy=0;entryPerimeter=0;" parent="1" source="207" target="180" edge="1">
                    <mxGeometry width="50" height="50" relative="1" as="geometry">
                        <mxPoint x="634.01" y="-59" as="sourcePoint"/>
                        <mxPoint x="695.51" y="61.50999999999999" as="targetPoint"/>
                    </mxGeometry>
                </mxCell>
                <mxCell id="225" value="" style="endArrow=classic;html=1;startArrow=none;startFill=0;endFill=1;strokeColor=#0077FF;shadow=0;exitX=0;exitY=0.5;exitDx=0;exitDy=0;entryX=1;entryY=0.5;entryDx=0;entryDy=0;" parent="1" source="191" edge="1" target="207">
                    <mxGeometry width="50" height="50" relative="1" as="geometry">
                        <mxPoint x="1242.01" y="-179" as="sourcePoint"/>
                        <mxPoint x="1242.01" y="1" as="targetPoint"/>
                    </mxGeometry>
                </mxCell>
                <mxCell id="227" value="" style="endArrow=classic;html=1;exitX=1;exitY=0.5;exitDx=0;exitDy=0;entryX=0;entryY=0.5;entryDx=0;entryDy=0;strokeColor=#0077FF;fontColor=#0077FF;shadow=0;" parent="1" source="174" target="215" edge="1">
                    <mxGeometry width="50" height="50" relative="1" as="geometry">
                        <mxPoint x="452.76" y="364.81" as="sourcePoint"/>
                        <mxPoint x="495.26" y="494.8150000000001" as="targetPoint"/>
                    </mxGeometry>
                </mxCell>
                <mxCell id="228" value="" style="endArrow=classic;startArrow=classic;html=1;exitX=0.5;exitY=1;exitDx=0;exitDy=0;entryX=0.5;entryY=0;entryDx=0;entryDy=0;strokeColor=#0077FF;fontColor=#0077FF;shadow=0;dashed=1;" parent="1" source="174" target="173" edge="1">
                    <mxGeometry width="50" height="50" relative="1" as="geometry">
                        <mxPoint x="522.76" y="514.8100000000001" as="sourcePoint"/>
                        <mxPoint x="572.76" y="464.81" as="targetPoint"/>
                    </mxGeometry>
                </mxCell>
                <mxCell id="231" value="&lt;b&gt;grpc api&lt;/b&gt;" style="text;html=1;strokeColor=none;fillColor=none;align=center;verticalAlign=middle;whiteSpace=wrap;rounded=0;fontColor=#0077FF;" parent="1" vertex="1">
                    <mxGeometry x="970.01" y="231" width="70" height="30" as="geometry"/>
                </mxCell>
                <mxCell id="232" value="" style="endArrow=classic;startArrow=classic;html=1;entryX=0.5;entryY=1;entryDx=0;entryDy=0;exitX=0.5;exitY=0;exitDx=0;exitDy=0;strokeColor=#0077FF;dashed=1;" parent="1" edge="1">
                    <mxGeometry width="50" height="50" relative="1" as="geometry">
                        <mxPoint x="963.26" y="306" as="sourcePoint"/>
                        <mxPoint x="963.26" y="171" as="targetPoint"/>
                    </mxGeometry>
                </mxCell>
                <mxCell id="268" value="&lt;b style=&quot;border-color: var(--border-color);&quot;&gt;&lt;font style=&quot;border-color: var(--border-color); font-size: 10px;&quot;&gt;boong&lt;br&gt;&lt;/font&gt;&lt;/b&gt;" style="rounded=0;whiteSpace=wrap;html=1;strokeColor=#0077FF;fillColor=none;shadow=1;fontColor=#0077FF;" parent="1" vertex="1">
                    <mxGeometry x="800.3399999999999" y="-280.86" width="192.41" height="57.35" as="geometry"/>
                </mxCell>
                <mxCell id="275" value="&lt;span style=&quot;border-color: var(--border-color);&quot;&gt;gRPC Server&lt;/span&gt;&lt;span&gt;&lt;font&gt;&lt;br&gt;&lt;/font&gt;&lt;/span&gt;" style="text;html=1;strokeColor=none;fillColor=none;align=center;verticalAlign=middle;whiteSpace=wrap;rounded=0;fontColor=#0077FF;fontStyle=1" parent="1" vertex="1">
                    <mxGeometry x="166.5" y="321" width="93.5" height="35" as="geometry"/>
                </mxCell>
                <mxCell id="278" value="&lt;b style=&quot;border-color: var(--border-color);&quot;&gt;&lt;font style=&quot;font-size: 10px;&quot;&gt;clone&lt;/font&gt;&lt;br&gt;&lt;/b&gt;" style="rounded=0;whiteSpace=wrap;html=1;strokeColor=#0077FF;fillColor=none;shadow=1;fontColor=#0077FF;" parent="1" vertex="1">
                    <mxGeometry x="676.8500000000001" y="507.73" width="96.82" height="57.35" as="geometry"/>
                </mxCell>
                <mxCell id="279" value="&lt;b style=&quot;border-color: var(--border-color);&quot;&gt;&lt;b&gt;&lt;font style=&quot;font-size: 10px;&quot;&gt;dumpstats&lt;/font&gt;&lt;/b&gt;&lt;br&gt;&lt;/b&gt;" style="rounded=0;whiteSpace=wrap;html=1;strokeColor=#0077FF;fillColor=none;shadow=1;fontColor=#0077FF;" parent="1" vertex="1">
                    <mxGeometry x="1326.2000000000003" y="-232.42999999999995" width="96.82" height="57.35" as="geometry"/>
                </mxCell>
                <mxCell id="280" value="&lt;b style=&quot;border-color: var(--border-color);&quot;&gt;&lt;font style=&quot;font-size: 10px;&quot;&gt;worker&lt;/font&gt;&lt;br&gt;&lt;/b&gt;" style="rounded=0;whiteSpace=wrap;html=1;strokeColor=#0077FF;fillColor=none;shadow=1;fontColor=#0077FF;" parent="1" vertex="1">
                    <mxGeometry x="886.85" y="424.56" width="96.82" height="57.35" as="geometry"/>
                </mxCell>
                <mxCell id="281" value="&lt;b style=&quot;border-color: var(--border-color);&quot;&gt;&lt;font style=&quot;font-size: 10px;&quot;&gt;clone&lt;/font&gt;&lt;br&gt;&lt;/b&gt;" style="rounded=0;whiteSpace=wrap;html=1;strokeColor=#0077FF;fillColor=none;shadow=1;fontColor=#0077FF;" parent="1" vertex="1">
                    <mxGeometry x="886.85" y="507.73" width="96.82" height="57.35" as="geometry"/>
                </mxCell>
                <mxCell id="286" value="&lt;b style=&quot;border-color: var(--border-color);&quot;&gt;&lt;font style=&quot;font-size: 10px;&quot;&gt;worker&lt;/font&gt;&lt;br&gt;&lt;/b&gt;" style="rounded=0;whiteSpace=wrap;html=1;strokeColor=#0077FF;fillColor=none;shadow=1;fontColor=#0077FF;" parent="1" vertex="1">
                    <mxGeometry x="1106.85" y="424.56" width="96.82" height="57.35" as="geometry"/>
                </mxCell>
                <mxCell id="287" value="&lt;b style=&quot;border-color: var(--border-color);&quot;&gt;&lt;font style=&quot;font-size: 10px;&quot;&gt;clone&lt;/font&gt;&lt;br&gt;&lt;/b&gt;" style="rounded=0;whiteSpace=wrap;html=1;strokeColor=#0077FF;fillColor=none;shadow=1;fontColor=#0077FF;" parent="1" vertex="1">
                    <mxGeometry x="1106.85" y="507.73" width="96.82" height="57.35" as="geometry"/>
                </mxCell>
                <mxCell id="288" value="&lt;b style=&quot;border-color: var(--border-color);&quot;&gt;&lt;font style=&quot;font-size: 10px;&quot;&gt;...&lt;/font&gt;&lt;br&gt;&lt;/b&gt;" style="rounded=0;whiteSpace=wrap;html=1;strokeColor=#0077FF;fillColor=none;shadow=1;fontColor=#0077FF;" parent="1" vertex="1">
                    <mxGeometry x="1316.85" y="424.56" width="96.82" height="57.35" as="geometry"/>
                </mxCell>
                <mxCell id="289" value="&lt;b style=&quot;border-color: var(--border-color);&quot;&gt;&lt;font style=&quot;font-size: 10px;&quot;&gt;...&lt;/font&gt;&lt;br&gt;&lt;/b&gt;" style="rounded=0;whiteSpace=wrap;html=1;strokeColor=#0077FF;fillColor=none;shadow=1;fontColor=#0077FF;" parent="1" vertex="1">
                    <mxGeometry x="1316.85" y="507.73" width="96.82" height="57.35" as="geometry"/>
                </mxCell>
                <mxCell id="290" value="" style="endArrow=none;html=1;exitX=0.5;exitY=1;exitDx=0;exitDy=0;startArrow=classic;startFill=1;endFill=0;entryX=0.895;entryY=-0.017;entryDx=0;entryDy=0;entryPerimeter=0;strokeColor=#0077FF;shadow=0;" parent="1" source="279" target="180" edge="1">
                    <mxGeometry width="50" height="50" relative="1" as="geometry">
                        <mxPoint x="1373.99" y="-175.07999999999947" as="sourcePoint"/>
                        <mxPoint x="1374.2460000000003" y="-1.254750000000513" as="targetPoint"/>
                    </mxGeometry>
                </mxCell>
                <mxCell id="291" value="" style="endArrow=classic;html=1;entryX=0.5;entryY=0;entryDx=0;entryDy=0;strokeColor=#0077FF;shadow=0;exitX=0.5;exitY=1;exitDx=0;exitDy=0;" parent="1" source="211" target="278" edge="1">
                    <mxGeometry width="50" height="50" relative="1" as="geometry">
                        <mxPoint x="724.8500000000003" y="481.90999999999974" as="sourcePoint"/>
                        <mxPoint x="724.7370000000004" y="562.1197500000002" as="targetPoint"/>
                    </mxGeometry>
                </mxCell>
                <mxCell id="292" value="" style="endArrow=classic;html=1;entryX=0.5;entryY=0;entryDx=0;entryDy=0;strokeColor=#0077FF;shadow=0;exitX=0.5;exitY=1;exitDx=0;exitDy=0;" parent="1" source="280" target="281" edge="1">
                    <mxGeometry width="50" height="50" relative="1" as="geometry">
                        <mxPoint x="940.0100000000002" y="481.89999999999986" as="sourcePoint"/>
                        <mxPoint x="940.0100000000002" y="507.72" as="targetPoint"/>
                    </mxGeometry>
                </mxCell>
                <mxCell id="293" value="" style="endArrow=classic;html=1;entryX=0.5;entryY=0;entryDx=0;entryDy=0;strokeColor=#0077FF;shadow=0;exitX=0.5;exitY=1;exitDx=0;exitDy=0;" parent="1" source="286" target="287" edge="1">
                    <mxGeometry width="50" height="50" relative="1" as="geometry">
                        <mxPoint x="1155.0200000000004" y="481.90999999999985" as="sourcePoint"/>
                        <mxPoint x="1155.0200000000004" y="507.73" as="targetPoint"/>
                    </mxGeometry>
                </mxCell>
                <mxCell id="294" value="" style="endArrow=classic;html=1;entryX=0.5;entryY=0;entryDx=0;entryDy=0;strokeColor=#0077FF;shadow=0;exitX=0.5;exitY=1;exitDx=0;exitDy=0;" parent="1" source="288" target="289" edge="1">
                    <mxGeometry width="50" height="50" relative="1" as="geometry">
                        <mxPoint x="1365.1500000000003" y="481.90999999999985" as="sourcePoint"/>
                        <mxPoint x="1365.1500000000003" y="507.73" as="targetPoint"/>
                    </mxGeometry>
                </mxCell>
                <mxCell id="295" value="" style="edgeStyle=elbowEdgeStyle;elbow=vertical;endArrow=classic;html=1;rounded=1;endSize=8;startSize=8;exitX=0.5;exitY=1;exitDx=0;exitDy=0;entryX=0.5;entryY=0;entryDx=0;entryDy=0;strokeColor=#0077FF;" parent="1" source="268" target="219" edge="1">
                    <mxGeometry width="50" height="50" relative="1" as="geometry">
                        <mxPoint x="939.79" y="40" as="sourcePoint"/>
                        <mxPoint x="989.79" y="-10" as="targetPoint"/>
                    </mxGeometry>
                </mxCell>
                <mxCell id="296" value="" style="edgeStyle=elbowEdgeStyle;elbow=vertical;endArrow=classic;html=1;rounded=1;endSize=8;startSize=8;exitX=0.5;exitY=1;exitDx=0;exitDy=0;entryX=0.5;entryY=0;entryDx=0;entryDy=0;strokeColor=#0077FF;" parent="1" source="268" target="217" edge="1">
                    <mxGeometry width="50" height="50" relative="1" as="geometry">
                        <mxPoint x="906.5450000000001" y="-213.51000000000022" as="sourcePoint"/>
                        <mxPoint x="1050.5900000000001" y="-174" as="targetPoint"/>
                    </mxGeometry>
                </mxCell>
                <mxCell id="297" value="" style="endArrow=classic;html=1;entryX=0.5;entryY=0;entryDx=0;entryDy=0;strokeColor=#0077FF;shadow=0;exitX=0.5;exitY=1;exitDx=0;exitDy=0;" parent="1" source="268" target="218" edge="1">
                    <mxGeometry width="50" height="50" relative="1" as="geometry">
                        <mxPoint x="906.5499999999997" y="-68.50999999999976" as="sourcePoint"/>
                        <mxPoint x="906.4369999999999" y="11.699750000000222" as="targetPoint"/>
                    </mxGeometry>
                </mxCell>
                <mxCell id="298" value="&lt;b style=&quot;border-color: var(--border-color); font-size: 10px;&quot;&gt;consul&lt;/b&gt;" style="rounded=0;whiteSpace=wrap;html=1;strokeColor=#0077FF;fillColor=none;shadow=1;fontColor=#0077FF;" parent="1" vertex="1">
                    <mxGeometry x="335.26" y="-232.42999999999995" width="96.82" height="57.35" as="geometry"/>
                </mxCell>
                <mxCell id="299" value="" style="endArrow=classic;html=1;exitX=0.5;exitY=1;exitDx=0;exitDy=0;strokeColor=#0077FF;shadow=0;entryX=0.5;entryY=0;entryDx=0;entryDy=0;startArrow=classic;startFill=1;dashed=1;" parent="1" source="298" target="174" edge="1">
                    <mxGeometry width="50" height="50" relative="1" as="geometry">
                        <mxPoint x="562.01" y="-165" as="sourcePoint"/>
                        <mxPoint x="562.01" y="13" as="targetPoint"/>
                    </mxGeometry>
                </mxCell>
                <mxCell id="300" value="&lt;b&gt;consul api&lt;/b&gt;" style="text;html=1;strokeColor=none;fillColor=none;align=center;verticalAlign=middle;whiteSpace=wrap;rounded=0;fontColor=#0077FF;" parent="1" vertex="1">
                    <mxGeometry x="390.01" y="231" width="80" height="30" as="geometry"/>
                </mxCell>
                <mxCell id="303" value="" style="edgeStyle=segmentEdgeStyle;endArrow=classic;html=1;curved=0;rounded=1;endSize=8;startSize=8;exitX=0;exitY=0.5;exitDx=0;exitDy=0;entryX=0.5;entryY=1;entryDx=0;entryDy=0;dashed=1;strokeColor=#0077FF;startArrow=classic;startFill=1;" parent="1" source="180" target="298" edge="1">
                    <mxGeometry width="50" height="50" relative="1" as="geometry">
                        <mxPoint x="280.01" y="290" as="sourcePoint"/>
                        <mxPoint x="330.01" y="240" as="targetPoint"/>
                    </mxGeometry>
                </mxCell>
            </root>
        </mxGraphModel>
    </diagram>
</mxfile>